<svg width="468" height="111" viewBox="0 0 468 111" fill="none" xmlns="http://www.w3.org/2000/svg">
<path d="M0 2.66113H49.782V17.9782H18.429V36.9382H47.7525V52.1099H18.429V85.3587H0V2.66113Z" fill="#0472D8"/>
<path d="M55.6914 2.66113H74.1204V85.3561H55.6914V2.66113Z" fill="#0472D8"/>
<path d="M102.333 12.0094C102.356 17.2051 98.5713 21.3336 92.442 21.3336C86.3126 21.3336 82.8398 17.2051 82.8654 12.0094C82.8423 6.67345 86.7016 2.65918 92.6058 2.65918C98.5099 2.65918 102.262 6.65268 102.333 12.0094ZM83.3849 85.3568V25.3011H101.814V85.3568H83.3849Z" fill="#0472D8"/>
<path d="M167.47 25.3004C167.191 29.1797 166.964 34.2533 166.964 43.201V76.6213C166.964 88.1577 164.673 97.6014 157.963 103.625C151.48 109.327 142.679 111 133.973 111C126.159 111 117.99 109.379 112.693 106.399L116.345 92.2473C120.056 94.4076 126.556 96.7419 133.489 96.7419C142.193 96.7419 148.844 92.024 148.844 80.9341V77.0731H148.604C145.128 81.9883 139.447 84.8238 132.627 84.8238C118.031 84.8238 107.603 72.781 107.603 55.5892C107.603 36.2163 119.897 23.9502 134.421 23.9502C142.551 23.9502 147.629 27.5412 150.631 32.4799H150.871L151.491 25.2978H167.468L167.47 25.3004ZM148.558 49.7755C148.558 48.5785 148.448 47.3425 148.189 46.3273C146.92 41.3886 143.406 38.0625 138.295 38.0625C131.6 38.0625 126.257 44.2682 126.257 55.1556C126.257 64.1007 130.615 71.0984 138.262 71.0984C143.022 71.0984 146.812 67.915 148.031 63.5606C148.432 62.1351 148.558 60.1695 148.558 58.6142V49.7729V49.7755Z" fill="#0472D8"/>
<path d="M368.275 12.0094C368.298 17.2051 364.513 21.3336 358.383 21.3336C352.254 21.3336 348.784 17.2051 348.807 12.0094C348.784 6.67345 352.643 2.65918 358.547 2.65918C364.451 2.65918 368.203 6.65268 368.275 12.0094ZM349.326 86.3409V26.2852H367.755V86.3409H349.326Z" fill="#F5F9F7"/>
<path d="M397.422 9.16016V26.287H410.669V40.0591H397.422V61.8182C397.422 69.06 399.196 72.3992 404.683 72.3992C407.055 72.3992 408.887 72.1447 410.154 71.8409L410.3 86.0259C407.925 86.8957 403.531 87.6306 398.379 87.6306C392.429 87.6306 387.469 85.5325 384.511 82.4193C381.094 78.862 379.423 73.1496 379.423 64.6199V40.0591H371.559V26.287H379.423V13.3847L397.422 9.16016Z" fill="#F5F9F7"/>
<path d="M326.728 41.8434V41.5319C335.908 38.0732 340.113 31.2184 340.113 23.9428C340.113 16.6673 336.1 10.716 330.398 7.63906C324.44 4.12593 317.525 2.99902 306.296 2.99902C297.064 2.99902 287.357 3.82473 282.513 4.77766V24.6828C283.122 25.0957 283.713 25.5786 284.261 26.1421C286.065 27.9986 287.13 30.268 287.109 32.2154C287.086 34.4822 285.131 37.8188 282.513 39.8363V85.9796C286.641 86.595 293.348 87.2 302.431 87.2C318.659 87.2 328.499 84.5437 334.478 79.6726C339.524 75.5908 342.956 69.6811 342.956 62.1095C342.956 51.5234 336.036 44.318 326.731 41.8408L326.728 41.8434ZM300.773 17.1658C302.283 16.8516 304.555 16.5894 308.583 16.5894C316.911 16.5894 321.605 19.9026 321.605 26.1836C321.605 32.4647 316.509 36.4426 306.746 36.4426H300.773V17.1684V17.1658ZM307.841 73.3656C304.729 73.3656 302.541 73.3344 300.773 73.0306V49.7837H307.068C316.259 49.7915 323.568 53.0995 323.568 61.3747C323.568 70.0835 316.207 73.3656 307.839 73.3656H307.841Z" fill="#F5F9F7"/>
<path d="M230.491 41.5731L220.717 48.7577C220.32 49.0485 219.857 49.1913 219.399 49.1913C218.782 49.1913 218.171 48.9343 217.731 48.4383L212.548 42.6039C211.793 41.7548 211.775 40.4669 212.507 39.5971L218.603 32.3553L214.455 27.2505C213.521 27.1414 212.571 27.0661 211.596 27.0661C208.182 27.0661 204.748 27.8996 202.017 29.3277C199.094 30.8207 196.735 32.7162 194.81 35.2115H194.57V2.66113H176.141V85.3561H194.57V51.5386C194.57 50.2559 194.703 48.7292 195.163 47.6646C196.474 44.4267 199.486 41.4043 204.394 41.4043C211.222 41.4043 213.905 46.5351 213.905 54.0391V85.3561H232.333V52.0969C232.333 48.0774 231.824 44.5903 230.923 41.5731H230.496H230.491Z" fill="#0472D8"/>
<path d="M468 54.9248C468 46.364 465.587 37.7201 459.879 31.9246C458.687 32.5919 457.315 32.9736 455.856 32.9736C452.995 32.9736 450.474 31.5117 448.969 29.2891C447.575 31.9947 444.788 33.8434 441.571 33.8434C438.354 33.8434 435.772 32.1245 434.331 29.5799C432.808 31.6389 430.39 32.9762 427.656 32.9762C425.839 32.9762 424.163 32.3816 422.794 31.3819C415.295 37.6863 411.735 47.6804 411.735 57.0722C411.735 75.7855 423.249 87.6336 443.298 87.6336C451.232 87.6336 458.62 86.3691 464.742 83.8374L462.26 71.2052C457.295 72.9033 452.194 73.7498 445.973 73.7498C437.386 73.7498 429.839 70.0705 429.292 62.3224H467.34C467.665 60.941 467.997 58.1809 467.997 54.93L468 54.9248ZM429.143 49.5266C429.652 44.5594 432.803 37.354 440.575 37.354C448.949 37.354 450.927 45.032 450.897 49.5266H429.143Z" fill="#F5F9F7"/>
<path d="M278.096 25.4644H261.709L248.81 0L239.065 0.0051931L243.746 25.4644H233.358H229.762L219.397 17.8461L214.215 23.3742L221.532 32.379L214.215 41.0774L219.397 46.9145L229.762 39.2962H243.869V64.031C243.869 72.6204 245.537 78.3717 248.956 81.955C251.915 85.089 256.875 87.2026 262.825 87.2026C267.976 87.2026 272.371 86.4652 274.746 85.5875L274.6 71.3013C273.333 71.6077 271.5 71.8622 269.128 71.8622C263.639 71.8622 261.868 68.4996 261.868 61.2059V39.2936H261.706H278.093C281.341 39.2936 284.834 34.4562 284.857 32.1946C284.883 29.5306 281.448 25.48 278.093 25.4644H278.096Z" fill="#0472D8"/>
</svg>
